<svg width="24" height="24" viewBox="0 0 24 24" fill="none" xmlns="http://www.w3.org/2000/svg">
<path d="M10.1163 15.1228C10.1163 14.5201 9.99128 14.2595 9.86589 14.1341C9.7405 14.0087 9.4799 13.8837 8.87721 13.8837H5.49487C4.89219 13.8837 4.6316 14.0087 4.50622 14.1341C4.38083 14.2595 4.25581 14.5201 4.25581 15.1228V18.5051C4.25581 19.1078 4.38083 19.3684 4.50622 19.4938C4.6316 19.6192 4.89219 19.7442 5.49487 19.7442H8.87721C9.4799 19.7442 9.7405 19.6192 9.86589 19.4938C9.99128 19.3684 10.1163 19.1078 10.1163 18.5051V15.1228ZM15.9767 19.1163V17.2326H14.093C13.7462 17.2326 13.4651 16.9514 13.4651 16.6047C13.4651 16.2579 13.7462 15.9767 14.093 15.9767H15.9767V14.093C15.9767 13.7462 16.2579 13.4651 16.6047 13.4651C16.9514 13.4651 17.2326 13.7462 17.2326 14.093V15.9767H19.1163C19.4631 15.9768 19.7442 16.2579 19.7442 16.6047C19.7442 16.9514 19.4631 17.2326 19.1163 17.2326H17.2326V19.1163C17.2326 19.4631 16.9514 19.7442 16.6047 19.7442C16.2579 19.7442 15.9768 19.4631 15.9767 19.1163ZM19.7442 5.49487C19.7442 4.89219 19.6192 4.6316 19.4938 4.50622C19.3684 4.38083 19.1078 4.25581 18.5051 4.25581H15.1228C14.5201 4.25581 14.2595 4.38083 14.1341 4.50622C14.0087 4.6316 13.8837 4.89219 13.8837 5.49487V8.87721C13.8837 9.4799 14.0087 9.7405 14.1341 9.86589C14.2595 9.99128 14.5201 10.1163 15.1228 10.1163H18.5051C19.1078 10.1163 19.3684 9.99128 19.4938 9.86589C19.6192 9.7405 19.7442 9.4799 19.7442 8.87721V5.49487ZM10.1163 5.28558C10.1163 4.77616 9.99974 4.57846 9.89282 4.48345C9.76696 4.37163 9.49376 4.25581 8.87721 4.25581H5.49487C4.87832 4.25581 4.60512 4.37163 4.47926 4.48345C4.37234 4.57846 4.25581 4.77616 4.25581 5.28558V9.07814C4.25581 9.59304 4.37295 9.78929 4.47835 9.88257C4.6035 9.99333 4.87608 10.1079 5.49487 10.1079H8.88116C9.49737 10.1118 9.76924 9.99694 9.89373 9.88676C9.99953 9.79313 10.1163 9.59639 10.1163 9.0865V5.28558ZM11.3721 18.5051C11.3721 19.2336 11.2292 19.9065 10.7539 20.3818C10.2786 20.8571 9.60568 21 8.87721 21H5.49487C4.76641 21 4.09353 20.8571 3.61822 20.3818C3.14291 19.9065 3 19.2336 3 18.5051V15.1228C3 14.3943 3.14291 13.7214 3.61822 13.2461C4.09353 12.7708 4.76641 12.6279 5.49487 12.6279H8.87721C9.60568 12.6279 10.2786 12.7708 10.7539 13.2461C11.2292 13.7214 11.3721 14.3943 11.3721 15.1228V18.5051ZM21 8.87721C21 9.60568 20.8571 10.2786 20.3818 10.7539C19.9065 11.2292 19.2336 11.3721 18.5051 11.3721H15.1228C14.3943 11.3721 13.7214 11.2292 13.2461 10.7539C12.7708 10.2786 12.6279 9.60568 12.6279 8.87721V5.49487C12.6279 4.76641 12.7708 4.09353 13.2461 3.61822C13.7214 3.14291 14.3943 3 15.1228 3H18.5051C19.2336 3 19.9065 3.14291 20.3818 3.61822C20.8571 4.09353 21 4.76641 21 5.49487V8.87721ZM11.3721 9.0865C11.3721 9.75708 11.2209 10.3892 10.726 10.8272C10.2507 11.2479 9.59064 11.3677 8.87721 11.3637L5.49487 11.3637C4.78251 11.3637 4.1216 11.2438 3.64606 10.823C3.15077 10.3846 3 9.75206 3 9.07814V5.28558C3 4.61454 3.15138 3.9834 3.64515 3.54468C4.11999 3.12279 4.78028 3 5.49487 3H8.87721C9.59181 3 10.2521 3.12279 10.7269 3.54468C11.2207 3.9834 11.3721 4.61453 11.3721 5.28558V9.0865Z" fill="#414D63"/>
</svg>
