<svg version="1.0" xmlns="http://www.w3.org/2000/svg"
 width="200px" height="200px" viewBox="0 0 1024.000000 1024.000000"
 preserveAspectRatio="xMidYMid meet">

<g transform="translate(0.000000,1024.000000) scale(0.100000,-0.100000)"
fill="#000000" stroke="none">
<path d="M1895 8575 c-253 -56 -448 -232 -533 -480 l-27 -80 0 -2585 0 -2585
29 -89 c69 -210 244 -382 456 -448 l75 -23 1106 0 1105 0 37 25 c67 46 95 132
66 207 -11 31 -53 78 -84 96 -15 9 -306 13 -1105 17 l-1085 5 -56 28 c-69 33
-132 99 -167 175 l-27 57 -3 1963 -2 1962 3440 0 3440 0 0 -940 c0 -920 0
-942 20 -980 67 -131 247 -131 316 1 21 42 21 3029 -1 3134 -48 230 -237 440
-470 522 l-80 28 -3195 2 c-2624 1 -3206 -1 -3255 -12z m6473 -384 c75 -41
125 -94 161 -170 l26 -56 3 -397 3 -398 -3441 0 -3441 0 3 398 c3 361 5 401
22 437 45 99 124 173 222 209 34 13 470 14 3209 13 l3170 -2 63 -34z"/>
<path d="M6108 7851 c-125 -40 -179 -175 -114 -285 105 -180 383 -80 352 127
-17 109 -138 190 -238 158z"/>
<path d="M6836 7845 c-109 -39 -157 -164 -105 -273 55 -113 216 -134 306 -39
100 106 51 277 -92 316 -50 14 -61 13 -109 -4z"/>
<path d="M7590 7849 c-139 -42 -184 -218 -81 -320 122 -122 326 -36 324 137
-1 125 -124 218 -243 183z"/>
<path d="M5980 6351 c-72 -23 -128 -73 -145 -129 -4 -13 -21 -109 -39 -214
l-31 -190 -150 -64 c-82 -36 -155 -62 -162 -60 -6 3 -88 54 -180 114 -92 61
-183 113 -201 117 -18 4 -55 1 -82 -5 -45 -11 -66 -29 -279 -239 -127 -126
-235 -240 -241 -255 -13 -35 -13 -107 1 -143 6 -15 58 -101 115 -190 l106
-162 -42 -91 c-22 -50 -48 -116 -58 -145 l-17 -54 -55 -11 c-93 -19 -273 -60
-313 -71 -49 -13 -105 -64 -128 -114 -17 -36 -19 -72 -19 -355 0 -312 0 -315
24 -367 37 -79 73 -98 267 -138 90 -19 177 -38 192 -43 25 -6 33 -18 61 -92
18 -47 45 -109 60 -138 l27 -53 -112 -181 c-99 -158 -113 -187 -117 -233 -8
-96 1 -109 248 -356 209 -209 230 -227 273 -237 89 -19 104 -12 333 137 l140
91 85 -38 c46 -22 116 -51 155 -66 l71 -28 33 -192 c35 -205 51 -251 102 -290
57 -43 100 -47 443 -44 301 3 322 4 359 24 82 42 94 70 132 291 19 109 34 201
34 205 0 4 10 10 23 13 12 4 81 34 153 67 l131 59 177 -115 c281 -183 263
-187 579 129 320 320 314 291 115 606 l-98 156 31 61 c16 33 43 96 58 139 l29
78 83 17 c193 41 306 71 337 90 18 11 45 41 60 66 l27 47 3 310 c4 356 1 377
-63 441 -47 47 -42 45 -274 93 l-173 36 -29 78 c-15 43 -43 110 -60 148 l-32
69 113 170 c124 187 137 220 115 303 -12 46 -30 66 -244 277 -213 209 -236
229 -280 240 -66 16 -112 2 -214 -64 -45 -29 -124 -79 -175 -111 l-94 -57 -96
45 c-53 24 -119 53 -145 62 -26 10 -50 21 -52 26 -3 4 -19 87 -35 186 -38 217
-44 239 -84 281 -63 68 -57 67 -421 69 -181 1 -341 -2 -355 -6z m519 -393 c6
-29 22 -115 35 -190 27 -146 43 -189 79 -212 12 -8 74 -33 137 -55 115 -39
236 -93 340 -151 93 -51 104 -47 335 98 l160 101 108 -107 c59 -59 107 -110
107 -115 0 -4 -46 -80 -102 -169 -135 -215 -134 -208 -40 -405 39 -82 83 -188
97 -238 26 -94 44 -126 86 -157 13 -10 108 -39 212 -64 l187 -46 -2 -161 -3
-160 -170 -38 c-176 -39 -238 -63 -267 -103 -10 -13 -27 -59 -38 -102 -25 -94
-73 -211 -130 -319 -61 -116 -57 -141 50 -315 45 -74 93 -151 105 -170 l23
-35 -110 -111 -110 -111 -179 109 c-222 136 -215 135 -383 50 -65 -34 -178
-80 -250 -103 -138 -45 -173 -63 -199 -103 -9 -14 -30 -103 -47 -198 -17 -95
-33 -183 -35 -195 -5 -23 -7 -23 -175 -23 -168 0 -170 0 -175 23 -3 12 -18 97
-35 190 -16 93 -37 181 -47 198 -25 42 -59 61 -199 107 -66 22 -175 68 -242
101 -177 89 -173 89 -394 -48 l-176 -108 -110 111 -110 111 104 165 c57 91
109 181 114 201 13 45 3 77 -59 198 -61 118 -92 195 -116 285 -14 50 -29 79
-54 106 -34 36 -45 39 -216 80 -99 23 -186 44 -192 46 -10 2 -13 44 -13 162
l0 160 193 47 c179 45 194 51 229 85 26 25 41 53 53 95 27 100 65 194 128 318
69 136 71 164 16 251 -18 28 -66 106 -108 174 l-75 123 98 92 c54 51 106 96
116 101 13 6 37 -4 91 -41 184 -123 261 -166 304 -171 39 -4 60 4 197 72 84
41 200 91 258 111 57 19 116 43 130 53 36 27 55 86 86 267 14 88 29 166 31
172 4 10 48 13 173 13 l169 0 10 -52z"/>
<path d="M6165 5086 c-411 -65 -735 -364 -837 -773 -33 -131 -31 -341 5 -474
78 -294 266 -527 532 -659 580 -288 1277 25 1440 646 58 224 35 467 -64 680
-147 313 -436 527 -778 579 -115 18 -189 18 -298 1z m313 -352 c121 -25 223
-84 323 -183 69 -69 94 -103 127 -171 180 -370 1 -799 -390 -937 -106 -38
-281 -44 -394 -14 -218 59 -394 226 -470 446 -25 71 -28 94 -28 205 0 108 4
136 27 205 37 113 90 196 177 279 115 109 251 172 399 185 89 8 130 5 229 -15z"/>
</g>
</svg>