<svg width="24" height="24" viewBox="0 0 24 24" fill="none" xmlns="http://www.w3.org/2000/svg">
<g clip-path="url(#clip0_5617_144802)">
<path d="M22.5 18V16.5H20.9242C20.8275 16.0305 20.6411 15.5842 20.3752 15.1853L21.4928 14.0678L20.4323 13.0073L19.3148 14.1248C18.9159 13.859 18.4695 13.6725 18 13.5758V12H16.5V13.5758C16.0305 13.6725 15.5842 13.8589 15.1853 14.1248L14.0678 13.0073L13.0073 14.0677L14.1248 15.1852C13.859 15.5841 13.6725 16.0305 13.5758 16.5H12V18H13.5758C13.6725 18.4695 13.8589 18.9158 14.1248 19.3147L13.0073 20.4322L14.0677 21.4927L15.1852 20.3752C15.5841 20.641 16.0305 20.8275 16.5 20.9242V22.5H18V20.9242C18.4695 20.8275 18.9158 20.6411 19.3147 20.3752L20.4322 21.4928L21.4927 20.4323L20.3752 19.3148C20.641 18.9159 20.8275 18.4695 20.9242 18H22.5ZM17.25 19.5C16.805 19.5 16.37 19.368 16 19.1208C15.63 18.8736 15.3416 18.5222 15.1713 18.111C15.001 17.6999 14.9564 17.2475 15.0432 16.811C15.13 16.3746 15.3443 15.9737 15.659 15.659C15.9737 15.3443 16.3746 15.13 16.811 15.0432C17.2475 14.9564 17.6999 15.001 18.111 15.1713C18.5222 15.3416 18.8736 15.63 19.1208 16C19.368 16.37 19.5 16.805 19.5 17.25C19.4993 17.8465 19.2621 18.4185 18.8403 18.8403C18.4185 19.2621 17.8465 19.4993 17.25 19.5Z" fill="#414D63"/>
<path d="M20.5714 3H3.42857C3.04981 3.00038 2.68666 3.14975 2.41884 3.41535C2.15101 3.68094 2.00038 4.04106 2 4.41667V18.5833C2.00043 18.9589 2.15108 19.319 2.4189 19.5846C2.68671 19.8502 3.04982 19.9996 3.42857 20H10.5714V18.5833H3.42857V8.66667H20.5714V10.7917H22V4.41667C21.9996 4.04108 21.8489 3.68099 21.5811 3.41541C21.3133 3.14983 20.9502 3.00043 20.5714 3ZM20.5714 7.25H3.42857V4.41667H20.5714V7.25Z" fill="#414D63"/>
<path d="M15 6.75C15.4142 6.75 15.75 6.41421 15.75 6C15.75 5.58579 15.4142 5.25 15 5.25C14.5858 5.25 14.25 5.58579 14.25 6C14.25 6.41421 14.5858 6.75 15 6.75Z" fill="#414D63"/>
<path d="M17.25 6.75C17.6642 6.75 18 6.41421 18 6C18 5.58579 17.6642 5.25 17.25 5.25C16.8358 5.25 16.5 5.58579 16.5 6C16.5 6.41421 16.8358 6.75 17.25 6.75Z" fill="#414D63"/>
<path d="M19.5 6.75C19.9142 6.75 20.25 6.41421 20.25 6C20.25 5.58579 19.9142 5.25 19.5 5.25C19.0858 5.25 18.75 5.58579 18.75 6C18.75 6.41421 19.0858 6.75 19.5 6.75Z" fill="#414D63"/>
</g>
<defs>
<clipPath id="clip0_5617_144802">
<rect width="24" height="24" fill="white"/>
</clipPath>
</defs>
</svg>
