<svg width="24" height="24" viewBox="0 0 24 24" fill="none" xmlns="http://www.w3.org/2000/svg">
<path d="M18.1512 4.79999H5.85122C5.73252 4.80303 5.61951 4.85154 5.53554 4.9355C5.45157 5.01947 5.40306 5.13248 5.40002 5.25119V6.75119C5.40309 6.86966 5.45168 6.98241 5.53571 7.06599C5.61973 7.14957 5.73273 7.19756 5.85122 7.19999H18.1512C18.2693 7.19695 18.3817 7.14869 18.4652 7.06518C18.5487 6.98166 18.597 6.86926 18.6 6.75119V5.25119C18.597 5.13288 18.5488 5.02022 18.4654 4.93631C18.3819 4.85241 18.2695 4.80363 18.1512 4.79999ZM8.55122 8.39999H5.85122C5.73252 8.40303 5.61951 8.45154 5.53554 8.5355C5.45157 8.61947 5.40306 8.73248 5.40002 8.85119V9.75119C5.40309 9.86966 5.45168 9.98241 5.53571 10.066C5.61973 10.1496 5.73273 10.1976 5.85122 10.2H8.55122C8.6693 10.197 8.78169 10.1487 8.86521 10.0652C8.94873 9.98166 8.99699 9.86926 9.00002 9.75119V8.85119C8.99701 8.73288 8.94884 8.62022 8.86538 8.53631C8.78192 8.45241 8.66951 8.40363 8.55122 8.39999ZM13.3512 8.39999H10.6512C10.5323 8.40244 10.419 8.45076 10.3349 8.53485C10.2508 8.61895 10.2025 8.73229 10.2 8.85119V9.75119C10.2031 9.86966 10.2517 9.98241 10.3357 10.066C10.4197 10.1496 10.5327 10.1976 10.6512 10.2H13.3488C13.4673 10.1976 13.5803 10.1496 13.6643 10.066C13.7484 9.98241 13.797 9.86966 13.8 9.75119V8.85119C13.7976 8.73229 13.7492 8.61895 13.6652 8.53485C13.5811 8.45076 13.4677 8.40244 13.3488 8.39999H13.3512ZM18.1512 8.39999H15.4488C15.3305 8.40363 15.2181 8.45241 15.1347 8.53631C15.0512 8.62022 15.003 8.73288 15 8.85119V9.75119C15.0031 9.86926 15.0513 9.98166 15.1348 10.0652C15.2184 10.1487 15.3308 10.197 15.4488 10.2H18.1512C18.2693 10.197 18.3817 10.1487 18.4652 10.0652C18.5487 9.98166 18.597 9.86926 18.6 9.75119V8.85119C18.597 8.73288 18.5488 8.62022 18.4654 8.53631C18.3819 8.45241 18.2695 8.40363 18.1512 8.39999ZM8.55122 11.4H5.85122C5.73233 11.4024 5.61898 11.4508 5.53489 11.5349C5.4508 11.6189 5.40248 11.7323 5.40002 11.8512V12.7512C5.40367 12.8695 5.45244 12.9819 5.53635 13.0653C5.62025 13.1488 5.73292 13.197 5.85122 13.2H8.55122C8.66911 13.1964 8.78118 13.1479 8.86457 13.0645C8.94797 12.9811 8.99641 12.8691 9.00002 12.7512V11.8512C8.99759 11.7327 8.9496 11.6197 8.86602 11.5357C8.78244 11.4516 8.6697 11.403 8.55122 11.4ZM13.3512 11.4H10.6512C10.5323 11.4024 10.419 11.4508 10.3349 11.5349C10.2508 11.6189 10.2025 11.7323 10.2 11.8512V12.7512C10.2031 12.8697 10.2517 12.9824 10.3357 13.066C10.4197 13.1496 10.5327 13.1976 10.6512 13.2H13.3488C13.4673 13.1976 13.5803 13.1496 13.6643 13.066C13.7484 12.9824 13.797 12.8697 13.8 12.7512V11.8512C13.7976 11.7323 13.7492 11.6189 13.6652 11.5349C13.5811 11.4508 13.4677 11.4024 13.3488 11.4H13.3512ZM18.1512 11.4H15.4488C15.3303 11.403 15.2176 11.4516 15.134 11.5357C15.0504 11.6197 15.0025 11.7327 15 11.8512V12.7512C15.0036 12.8691 15.0521 12.9811 15.1355 13.0645C15.2189 13.1479 15.3309 13.1964 15.4488 13.2H18.1512C18.2691 13.1964 18.3812 13.1479 18.4646 13.0645C18.548 12.9811 18.5964 12.8691 18.6 12.7512V11.8512C18.5976 11.7327 18.5496 11.6197 18.466 11.5357C18.3824 11.4516 18.2697 11.403 18.1512 11.4ZM8.55122 14.4H5.85122C5.73252 14.403 5.61951 14.4515 5.53554 14.5355C5.45157 14.6195 5.40306 14.7325 5.40002 14.8512V15.7512C5.40309 15.8697 5.45168 15.9824 5.53571 16.066C5.61973 16.1496 5.73273 16.1976 5.85122 16.2H8.55122C8.6693 16.197 8.78169 16.1487 8.86521 16.0652C8.94873 15.9817 8.99699 15.8693 9.00002 15.7512V14.8512C8.99701 14.7329 8.94884 14.6202 8.86538 14.5363C8.78192 14.4524 8.66951 14.4036 8.55122 14.4ZM13.3512 14.4H10.6512C10.5323 14.4024 10.419 14.4508 10.3349 14.5349C10.2508 14.6189 10.2025 14.7323 10.2 14.8512V15.7512C10.2031 15.8697 10.2517 15.9824 10.3357 16.066C10.4197 16.1496 10.5327 16.1976 10.6512 16.2H13.3488C13.4673 16.1976 13.5803 16.1496 13.6643 16.066C13.7484 15.9824 13.797 15.8697 13.8 15.7512V14.8512C13.7976 14.7323 13.7492 14.6189 13.6652 14.5349C13.5811 14.4508 13.4677 14.4024 13.3488 14.4H13.3512ZM18.1512 14.4H15.4488C15.3305 14.4036 15.2181 14.4524 15.1347 14.5363C15.0512 14.6202 15.003 14.7329 15 14.8512V15.7512C15.0031 15.8693 15.0513 15.9817 15.1348 16.0652C15.2184 16.1487 15.3308 16.197 15.4488 16.2H18.1512C18.2693 16.197 18.3817 16.1487 18.4652 16.0652C18.5487 15.9817 18.597 15.8693 18.6 15.7512V14.8512C18.597 14.7329 18.5488 14.6202 18.4654 14.5363C18.3819 14.4524 18.2695 14.4036 18.1512 14.4ZM8.55122 17.4H5.85122C5.73292 17.403 5.62025 17.4512 5.53635 17.5346C5.45244 17.6181 5.40367 17.7305 5.40002 17.8488V18.7512C5.40309 18.8697 5.45168 18.9824 5.53571 19.066C5.61973 19.1496 5.73273 19.1976 5.85122 19.2H8.55122C8.6693 19.197 8.78169 19.1487 8.86521 19.0652C8.94873 18.9817 8.99699 18.8693 9.00002 18.7512V17.8488C8.99641 17.7309 8.94797 17.6188 8.86457 17.5354C8.78118 17.452 8.66911 17.4036 8.55122 17.4ZM13.3512 17.4H10.6512C10.5327 17.4024 10.4197 17.4504 10.3357 17.534C10.2517 17.6176 10.2031 17.7303 10.2 17.8488V18.7512C10.2031 18.8697 10.2517 18.9824 10.3357 19.066C10.4197 19.1496 10.5327 19.1976 10.6512 19.2H13.3488C13.4673 19.1976 13.5803 19.1496 13.6643 19.066C13.7484 18.9824 13.797 18.8697 13.8 18.7512V17.8488C13.797 17.7303 13.7484 17.6176 13.6643 17.534C13.5803 17.4504 13.4673 17.4024 13.3488 17.4H13.3512ZM18.1512 17.4H15.4488C15.3309 17.4036 15.2189 17.452 15.1355 17.5354C15.0521 17.6188 15.0036 17.7309 15 17.8488V18.7512C15.0031 18.8693 15.0513 18.9817 15.1348 19.0652C15.2184 19.1487 15.3308 19.197 15.4488 19.2H18.1512C18.2693 19.197 18.3817 19.1487 18.4652 19.0652C18.5487 18.9817 18.597 18.8693 18.6 18.7512V17.8488C18.5964 17.7309 18.548 17.6188 18.4646 17.5354C18.3812 17.452 18.2691 17.4036 18.1512 17.4Z" fill="#414D63"/>
</svg>
