<svg width="28" height="28" viewBox="0 0 28 28" fill="none" xmlns="http://www.w3.org/2000/svg">
<path d="M22.6122 16.602H22.4184V5.7449C22.4184 5.53074 22.2448 5.35714 22.0306 5.35714H15.6327V4.38776C15.6327 4.1736 15.4591 4 15.2449 4H11.7551C11.5409 4 11.3673 4.1736 11.3673 4.38776V5.35714H4.96939C4.75523 5.35714 4.58163 5.53074 4.58163 5.7449V16.602H4.38776C4.1736 16.602 4 16.7756 4 16.9898V18.3469C4 18.5611 4.1736 18.7347 4.38776 18.7347H10.2947L8.32056 22.025L8.98552 22.424L11.1991 18.7347H13.1122V23H13.8878V18.7347H15.8009L18.0144 22.424L18.6794 22.025L16.7053 18.7347H22.6122C22.8264 18.7347 23 18.5611 23 18.3469V16.9898C23 16.7756 22.8264 16.602 22.6122 16.602ZM12.1429 4.77551H14.8571V5.35714H12.1429V4.77551ZM5.35714 6.13265H21.6429V16.602H5.35714V6.13265ZM22.2245 17.9592H4.77551V17.3776H22.2245V17.9592Z" fill="#414D63"/>
<path d="M10.5918 7.4898C8.45375 7.4898 6.71429 9.22926 6.71429 11.3673C6.71429 13.5054 8.45375 15.2449 10.5918 15.2449C12.7299 15.2449 14.4694 13.5054 14.4694 11.3673C14.4694 9.22926 12.7299 7.4898 10.5918 7.4898ZM10.5918 14.4694C8.88137 14.4694 7.4898 13.0778 7.4898 11.3673C7.4898 9.78825 8.67606 8.48194 10.2041 8.29039V11.3673C10.2041 11.5815 10.3777 11.7551 10.5918 11.7551H13.6688C13.4772 13.2831 12.1709 14.4694 10.5918 14.4694ZM10.9796 10.9796V8.29039C12.3805 8.46601 13.4932 9.57871 13.6688 10.9796H10.9796Z" fill="#414D63"/>
<path d="M20.0918 9.04082H17.3776V9.81633H20.0918V9.04082Z" fill="#414D63"/>
<path d="M20.0918 10.2041H17.3776V10.9796H20.0918V10.2041Z" fill="#414D63"/>
<path d="M20.0918 11.3673H17.3776V12.1429H20.0918V11.3673Z" fill="#414D63"/>
<path d="M19.1224 7.87755H17.3776V8.65306H19.1224V7.87755Z" fill="#414D63"/>
<path d="M16.602 8.65302V7.87751H14.8571C14.7543 7.87751 14.6556 7.91838 14.5829 7.99109L14.0013 8.57272L14.5497 9.12112L15.0177 8.65302H16.602Z" fill="#414D63"/>
<path d="M20.4796 13.1122H16.0204V13.8878H20.4796V13.1122Z" fill="#414D63"/>
<path d="M20.4796 14.4694H14.8571V15.2449H20.4796V14.4694Z" fill="#414D63"/>
</svg>
