<svg width="24" height="24" viewBox="0 0 24 24" fill="none" xmlns="http://www.w3.org/2000/svg">
<path d="M7.31707 3H15.6098V4.68889H18.9268V11.4444H17.2683V6.37778H15.6098V8.06667H7.31707V6.37778H5.65854V19.8889H10.6341V21.5778H4V4.68889H7.31707V3ZM8.97561 6.37778H13.9512V4.68889H8.97561V6.37778Z" fill="#414D63"/>
<path d="M16.439 14.4C15.6692 14.4 14.931 14.7114 14.3867 15.2657C13.8424 15.8199 13.5366 16.5717 13.5366 17.3556C13.5366 18.1394 13.8424 18.8912 14.3867 19.4454C14.931 19.9997 15.6692 20.3111 16.439 20.3111C17.2088 20.3111 17.947 19.9997 18.4914 19.4454C19.0357 18.8912 19.3415 18.1394 19.3415 17.3556C19.3415 16.5717 19.0357 15.8199 18.4914 15.2657C17.947 14.7114 17.2088 14.4 16.439 14.4ZM11.878 17.3556C11.878 16.7456 11.996 16.1417 12.2252 15.5782C12.4544 15.0147 12.7904 14.5027 13.2139 14.0714C13.6375 13.6402 14.1403 13.2981 14.6936 13.0646C15.247 12.8312 15.8401 12.7111 16.439 12.7111C17.038 12.7111 17.6311 12.8312 18.1844 13.0646C18.7378 13.2981 19.2406 13.6402 19.6641 14.0714C20.0876 14.5027 20.4236 15.0147 20.6528 15.5782C20.882 16.1417 21 16.7456 21 17.3556C21 18.5873 20.5195 19.7687 19.6641 20.6397C18.8088 21.5107 17.6487 22 16.439 22C15.2294 22 14.0693 21.5107 13.2139 20.6397C12.3586 19.7687 11.878 18.5873 11.878 17.3556ZM17.2683 15.4572V17.006L18.4409 18.2L17.2683 19.394L15.6098 17.7052V15.4572H17.2683Z" fill="#414D63"/>
</svg>
