<svg width="24" height="24" viewBox="0 0 24 24" fill="none" xmlns="http://www.w3.org/2000/svg">
<path d="M13.742 10.3871H10.2581C9.30007 10.3871 8.5162 11.171 8.5162 12.1291V14.742C8.5162 15.0613 8.66136 15.3516 8.86459 15.5549C9.06781 15.7581 9.35814 15.9033 9.67749 15.9033V18.5162C9.67749 19.4742 10.4614 20.2581 11.4194 20.2581H12.5807C13.5388 20.2581 14.3227 19.4742 14.3227 18.5162V15.9033C14.642 15.9033 14.9323 15.7871 15.1356 15.5549C15.3388 15.3516 15.4839 15.0613 15.4839 14.742V12.1291C15.4839 11.171 14.7001 10.3871 13.742 10.3871Z" fill="#414D63"/>
<path d="M12 9.22583C13.1224 9.22583 14.0323 8.31596 14.0323 7.19357C14.0323 6.07119 13.1224 5.16132 12 5.16132C10.8776 5.16132 9.96775 6.07119 9.96775 7.19357C9.96775 8.31596 10.8776 9.22583 12 9.22583Z" fill="#414D63"/>
<path d="M7.81935 16.9774C7.76129 16.9194 7.67419 16.8613 7.61613 16.8032C7.06452 16.2226 6.74516 15.4968 6.74516 14.7419V12.129C6.74516 11.2 7.12258 10.329 7.73226 9.71936C7.90645 9.54517 7.76129 9.22582 7.52903 9.22582C7.03548 9.22582 6.48387 9.22582 6.48387 9.22582H4.74194C3.78387 9.22582 3 10.0097 3 10.9678V13.5807C3 13.9 3.14516 14.1903 3.34839 14.3936C3.55161 14.5968 3.84194 14.7419 4.16129 14.7419V17.3548C4.16129 18.3129 4.94516 19.0968 5.90323 19.0968H7.06452C7.32581 19.0968 7.55806 19.0387 7.76129 18.9516C7.87742 18.8936 7.93548 18.8065 7.93548 18.6903C7.93548 18.3419 7.93548 17.529 7.93548 17.2097C7.93548 17.1226 7.90645 17.0355 7.81935 16.9774Z" fill="#414D63"/>
<path d="M6.48381 8.06452C7.6062 8.06452 8.51607 7.15464 8.51607 6.03226C8.51607 4.90987 7.6062 4 6.48381 4C5.36143 4 4.45155 4.90987 4.45155 6.03226C4.45155 7.15464 5.36143 8.06452 6.48381 8.06452Z" fill="#414D63"/>
<path d="M19.2581 9.22582H17.5162C17.5162 9.22582 16.9646 9.22582 16.471 9.22582C16.2097 9.22582 16.0936 9.51614 16.2678 9.71936C16.8775 10.3581 17.2549 11.2 17.2549 12.129V14.7419C17.2549 15.4968 16.9646 16.2226 16.3839 16.8032C16.3259 16.8613 16.2678 16.9194 16.1807 16.9774C16.1226 17.0355 16.0646 17.1226 16.0646 17.2097C16.0646 17.529 16.0646 18.3129 16.0646 18.6903C16.0646 18.8065 16.1226 18.9226 16.2388 18.9516C16.442 19.0387 16.6743 19.0968 16.9355 19.0968H18.0968C19.0549 19.0968 19.8388 18.3129 19.8388 17.3548V14.7419C20.1581 14.7419 20.4484 14.6258 20.6517 14.3936C20.8549 14.1903 21.0001 13.9 21.0001 13.5807V10.9678C21.0001 10.0097 20.2162 9.22582 19.2581 9.22582Z" fill="#414D63"/>
<path d="M17.5161 8.06452C18.6384 8.06452 19.5483 7.15464 19.5483 6.03226C19.5483 4.90987 18.6384 4 17.5161 4C16.3937 4 15.4838 4.90987 15.4838 6.03226C15.4838 7.15464 16.3937 8.06452 17.5161 8.06452Z" fill="#414D63"/>
</svg>
